<?xml version="1.0" encoding="utf-8"?>
<!-- Generator: Adobe Illustrator 24.0.1, SVG Export Plug-In . SVG Version: 6.00 Build 0)  -->
<svg version="1.1" id="Layer_1" xmlns="http://www.w3.org/2000/svg" xmlns:xlink="http://www.w3.org/1999/xlink" x="0px" y="0px"
	 viewBox="0 0 256 256" enable-background="new 0 0 256 256" xml:space="preserve">
<g>
	<path fill="#00AFAA" d="M220.1,164.9c-5.7,0-10.4-4.7-10.4-10.5c0-5.8,4.6-10.5,10.4-10.5c5.7,0,10.4,4.7,10.4,10.5
		C230.5,160.2,225.8,164.9,220.1,164.9 M230.5,120.8v18.9c-2.9-2.1-6.5-3.4-10.4-3.4c-9.9,0-17.9,8.1-17.9,18.1
		c0,10,8,18.1,17.9,18.1c3.9,0,7.4-1.3,10.4-3.4v3.4h7.5v-51.7H230.5z"/>
	<path fill="#00AFAA" d="M180.7,164.9c-5.7,0-10.4-4.7-10.4-10.5c0-5.8,4.6-10.5,10.4-10.5c5.7,0,10.4,4.7,10.4,10.5v0
		C191.1,160.2,186.4,164.9,180.7,164.9 M198.6,154.4v-18.1h-7.5v3.4c-2.9-2.1-6.5-3.4-10.4-3.4c-9.9,0-17.9,8.1-17.9,18.1
		c0,10,8,18.1,17.9,18.1c3.9,0,7.4-1.3,10.4-3.4v3.3h7.5V154.4C198.6,154.4,198.6,154.4,198.6,154.4
		C198.6,154.4,198.6,154.4,198.6,154.4"/>
	<path fill="#00AFAA" d="M148.4,143.9h-12.9v-15.6h12.9c4.2,0,7.7,3.5,7.7,7.8C156.1,140.4,152.7,143.9,148.4,143.9 M148.8,120.8
		L148.8,120.8l-13.3,0H128v7.6v15.6v7.6v20.9h7.5v-20.9h12.9c8.4,0,15.2-6.9,15.2-15.4C163.7,127.8,157.1,121,148.8,120.8"/>
	<path fill="#414141" d="M140.5,87.3c2.5,0,4.8,1.1,6.4,2.8l3.3-1.9c-2.3-2.8-5.8-4.6-9.6-4.6c-6.9,0-12.5,5.7-12.5,12.6
		c0,7,5.6,12.6,12.5,12.6c3.9,0,7.4-1.8,9.6-4.6l-3.3-1.9c-1.6,1.7-3.9,2.8-6.4,2.8c-4.9,0-8.8-4-8.8-8.9
		C131.7,91.3,135.6,87.3,140.5,87.3"/>
	<path fill="#414141" d="M177.7,105c-2.8,0-5.1-2.3-5.1-5.1c0-2.8,2.3-5.1,5.1-5.1c2.8,0,5.1,2.3,5.1,5.1v0
		C182.8,102.7,180.5,105,177.7,105 M186.5,99.9v-8.9h-3.7v1.7c-1.4-1-3.2-1.6-5.1-1.6c-4.8,0-8.8,4-8.8,8.9c0,4.9,3.9,8.9,8.8,8.9
		c1.9,0,3.6-0.6,5.1-1.6v1.7h3.7V99.9L186.5,99.9L186.5,99.9z"/>
	<path fill="#414141" d="M233.1,92.7v-1.5h-3.7v7.3v3.2v7.2h3.7v-1.5v-5.7v-0.4v-0.5c0-2.2,0.5-3.2,0.6-3.5c0,0,0,0,0,0c0,0,0,0,0,0
		c0.9-1.4,2.5-2.3,4.3-2.3v-3.7C236.2,91.2,234.5,91.7,233.1,92.7"/>
	<path fill="#414141" d="M192.5,92.7v-1.5h-3.7v7.3v3.2v7.2h3.7v-1.5v-5.7v-0.4v-0.5c0-2.2,0.5-3.2,0.6-3.5c0,0,0,0,0,0c0,0,0,0,0,0
		c0.9-1.4,2.5-2.3,4.3-2.3v-3.7C195.6,91.2,193.9,91.7,192.5,92.7"/>
	<polygon fill="#414141" points="205.8,85.5 202.1,85.5 202.1,91.2 199.5,91.2 199.5,94.9 202.1,94.9 202.1,108.8 205.8,108.8 
		205.8,94.9 208.5,94.9 208.5,91.2 205.8,91.2 	"/>
	<path fill="#414141" d="M159.7,91.2c-1.4,0-2.7,0.4-3.8,1v-8.7h-3.7v25.3h3.7V98.7c0-2.1,1.7-3.8,3.8-3.8c2.1,0,3.8,1.7,3.8,3.8
		v10.1h3.7V98.7C167.1,94.6,163.8,91.2,159.7,91.2"/>
	<path fill="#414141" d="M214.2,98.1c0.7-1.9,2.6-3.3,4.7-3.3c2.1,0,4,1.4,4.7,3.3H214.2z M218.9,91.2c-4.8,0-8.8,4-8.8,8.8
		c0,4.9,3.9,8.9,8.8,8.9c2.5,0,4.8-1.1,6.4-2.9l-3.3-1.9c-0.9,0.7-1.9,1.1-3.1,1.1c-2.1,0-4-1.4-4.7-3.3h13.3
		c0.1-0.6,0.2-1.2,0.2-1.9v0c0-0.6-0.1-1.2-0.2-1.8C226.6,94.1,223.1,91.2,218.9,91.2"/>
	<path fill="#00AFAA" d="M75.5,112c0.5,0.5,0.7,1.4,0.4,2.1l-14.5,35.7c-0.2,0.6-0.9,0.9-1.5,0.6c-0.6-0.2-0.9-0.9-0.6-1.5
		l14.1-34.7l-34.3,14.3c-0.6,0.2-1.3,0-1.5-0.6c-0.2-0.6,0-1.3,0.6-1.5l35.3-14.7C74.2,111.3,75,111.5,75.5,112"/>
	<path fill="#00AFAA" d="M32.8,110.9c-6.8,0-12.3-5.6-12.3-12.4C20.5,91.6,26,86,32.8,86c6.8,0,12.3,5.6,12.3,12.4
		C45.1,105.3,39.6,110.9,32.8,110.9 M32.8,83.5c-8.2,0-14.8,6.7-14.8,14.9c0,0,0,0,0,0h0v42.7c0,0.7,0.6,1.3,1.3,1.3
		c0.7,0,1.3-0.6,1.3-1.3v-34.4c2.7,4,7.2,6.6,12.3,6.6c8.2,0,14.8-6.7,14.8-14.9C47.6,90.2,40.9,83.5,32.8,83.5"/>
	<path fill="#00AFAA" d="M91.2,170c-6.8,0-12.3-5.6-12.3-12.4c0-6.8,5.5-12.4,12.3-12.4c6.8,0,12.3,5.6,12.3,12.4
		C103.5,164.4,98,170,91.2,170 M106,114.8c0-0.7-0.6-1.3-1.3-1.3c-0.7,0-1.3,0.6-1.3,1.3v34.4c-2.7-4-7.2-6.6-12.3-6.6
		c-8.2,0-14.8,6.7-14.8,14.9c0,8.2,6.6,14.9,14.8,14.9c8.2,0,14.8-6.7,14.8-14.9c0,0,0,0,0,0h0V114.8z"/>
	<path fill="#00AFAA" d="M20.5,157.5c0-6.8,5.5-12.4,12.3-12.4c6.8,0,12.3,5.6,12.3,12.4S39.6,170,32.8,170
		C26,170,20.5,164.4,20.5,157.5 M75.1,170H41c4-2.7,6.6-7.2,6.6-12.4c0-8.2-6.6-14.9-14.8-14.9c-8.2,0-14.8,6.7-14.8,14.9
		c0,8.2,6.6,14.9,14.8,14.9c0,0,0,0,0,0v0h42.2c0.7,0,1.3-0.6,1.3-1.3C76.3,170.5,75.8,170,75.1,170"/>
	<path fill="#00AFAA" d="M91.2,110.9c-6.8,0-12.3-5.6-12.3-12.4c0-6.8,5.5-12.4,12.3-12.4c6.8,0,12.3,5.6,12.3,12.4
		C103.5,105.3,98,110.9,91.2,110.9 M91.2,83.5C91.2,83.5,91.2,83.5,91.2,83.5L91.2,83.5H48.9c-0.7,0-1.3,0.6-1.3,1.3
		c0,0.7,0.6,1.3,1.3,1.3H83c-4,2.7-6.6,7.2-6.6,12.4c0,8.2,6.6,14.9,14.8,14.9c8.2,0,14.8-6.7,14.8-14.9
		C106,90.2,99.4,83.5,91.2,83.5"/>
</g>
</svg>
